# xmcd
#
# Track frame offsets: 
#        150
#        37269
#        73096
#        92426
#        124200
#        150369
#        171259
#        193946
#        225797
#        260653
#        291946
#
# Disc length: 4409 seconds
#
# Revision: 3
# Processed by: cddbd v1.5.2PL0 Copyright (c) Steve Scherf et al.
# Submitted via: ExactAudioCopy v0.95b4
#
DISCID=9911370b
DTITLE=Mike Stern - Who Let the Cats Out?
DYEAR=2006
DGENRE=Post-Bop
TTITLE0=Tumble Home
TTITLE1=KT
TTITLE2=Good Question
TTITLE3=Language
TTITLE4=We're with You
TTITLE5=Leni Goes Shopping
TTITLE6=Roll with It
TTITLE7=Texas
TTITLE8=Who Let the Cats Out?
TTITLE9=All You Need
TTITLE10=Blue Runway
EXTD=All compositions by Mike Stern.\nMike Stern: guitars\nRoy Hargrov
EXTD=e (tracks 2,9): trumpet\nBob Franceschini (1-4,9-11), Bob Malach 
EXTD=(7): sax\nGregoire Maret (5,8): harmonica\nJim Beard: piano (1,4-
EXTD=6,9-11), organ (1-4,7,8,10), synthesizers (2,5,6,11), clavinet (7
EXTD=]\nChris Minh Doky (1,6,9), Meshell Ndegeocello (2,8), Victor Woo
EXTD=ten (7), Anthony Jackson (11): bass\nRichard Bona: bass (3,4,5,10
EXTD=), vocals (3,4,10]\nKim Thompson (1,2,4,6,7,9,10), Dave Weckl (3,
EXTD=5,8,11): drums\nPrincipally recorded by Phil Magnotti at Avatar S
EXTD=tudios, New York US-NY, 2006-01.\nAdditional recording by Jim Bea
EXTD=rd at B&C Studio, New York US-NY, and Phil Magnotti at Carriage H
EXTD=ouse Studios, Stamford US-CT.\nMixed by Phil Magnotti and Jim Bea
EXTD=rd at Carriage House Studios, Stamford US-CT.\nMastered by Greg C
EXTD=albi at Sterling Sound, New York US-NY.\nProduced by Jim Beard.\n
EXTD=CD: Heads Up International HUCD 3115 (2006-08-15), UPC 0533613115
EXTD=20.
EXTT0=
EXTT1=
EXTT2=
EXTT3=
EXTT4=
EXTT5=
EXTT6=
EXTT7=
EXTT8=
EXTT9=
EXTT10=
PLAYORDER=
